<svg width="497" height="80" viewBox="0 0 497 80" fill="none" xmlns="http://www.w3.org/2000/svg">
	<path d="M73.1943 18.4262V23.8033C73.1943 25.2459 72.6013 25.7705 71.0859 25.7705H51.6489L41.2386 61.3115C40.8433 62.6885 40.1185 63.4098 38.669 63.4098H31.2236C29.7741 63.4098 29.0493 62.6885 28.654 61.3115L16.1353 18.5574C15.7399 17.2459 16.2012 16.5246 17.6507 16.5246H25.8208C27.2703 16.5246 27.8633 17.3115 28.2587 18.5574L33.4638 37.8361C34.518 41.7049 35.1769 49.0492 35.1769 49.0492C35.1769 49.0492 36.0993 41.7049 37.0877 37.8361L42.3587 18.5574C42.6881 17.2459 43.347 16.5246 44.7966 16.5246H71.0859C72.5354 16.5246 73.1943 16.9836 73.1943 18.4262ZM71.3494 41.7049V36.6557C71.3494 35.2131 70.7565 34.7541 69.241 34.7541H53.4279C52.0442 34.7541 51.2536 35.2787 50.8583 36.6557L49.3428 41.8361C48.9475 43.2131 49.4087 43.6721 50.7924 43.6721H69.3069C70.7564 43.7377 71.3494 43.1475 71.3494 41.7049ZM71.0859 54.0328H47.7615C46.312 54.0328 45.5213 54.5574 45.126 56L43.5447 61.3771C43.1494 62.8197 43.6106 63.2787 45.0601 63.2787H71.0859C72.5354 63.2787 73.1943 62.7541 73.1943 61.3115V55.9344C73.1943 54.5574 72.5354 54.0328 71.0859 54.0328ZM108.642 16.5246H101.856C100.406 16.5246 99.879 17.1148 99.879 18.5574V41.9672C99.1542 40.3279 98.2976 38.2295 97.4411 36.7869L85.713 17.3115C85.4495 16.7869 84.8565 16.459 83.9999 16.459H77.2135C75.7639 16.459 75.2368 17.0492 75.2368 18.4918V61.1803C75.2368 62.623 75.7639 63.2131 77.2135 63.2131H83.9999C85.4495 63.2131 85.9107 62.623 85.9107 61.1803V37.8361C86.7014 39.7377 87.6897 42.1639 88.8757 44.0656L99.9449 62.3607C100.34 63.082 100.801 63.3443 101.79 63.3443H108.576C110.026 63.3443 110.487 62.7541 110.487 61.3115V18.5574C110.553 17.1148 110.092 16.5246 108.642 16.5246ZM147.977 51.541C147.977 57.4426 143.299 63.3443 130.253 63.3443H114.374C113.122 63.3443 112.661 62.6229 112.661 61.2459V18.5574C112.661 17.1148 113.188 16.5246 114.638 16.5246H130.253C143.233 16.5246 147.977 22.3607 147.977 28.3279V51.541ZM136.513 30.2951C136.513 27.1475 133.614 25.8361 130.187 25.8361H123.994V54.0984H130.187C133.548 54.0984 136.513 52.7869 136.513 49.6393V30.2951ZM167.612 63.8689C180.592 63.8689 185.336 58.0328 185.336 52.0656V18.5574C185.336 17.1148 184.875 16.5246 183.425 16.5246H175.98C174.53 16.5246 174.003 17.1148 174.003 18.5574V50.0984C174.003 53.2459 171.104 54.5574 167.678 54.5574C164.317 54.5574 161.484 53.2459 161.484 50.0984V18.5574C161.484 17.1148 161.023 16.5246 159.574 16.5246H152.128C150.679 16.5246 150.152 17.1148 150.152 18.5574V52.1311C149.954 58.0328 154.632 63.8689 167.612 63.8689ZM213.338 36.8525L201.742 32.918C200.951 32.6557 199.502 31.8033 199.502 29.9672V29.3115C199.502 26.1639 201.808 24.9836 204.97 24.9836C208.133 24.9836 210.373 26.1639 210.373 29.3115V30.3607C210.373 31.8033 210.834 32.459 212.284 32.459H219.466C220.915 32.459 221.442 31.8689 221.442 30.3607V27.8033C221.442 21.9016 217.555 16 204.773 16C191.99 16 188.367 21.8361 188.367 27.8033V31.8033C188.367 35.8033 191.266 39.6721 194.824 40.9836L204.773 44.7213C207.408 45.7049 210.703 46.8852 210.703 49.3115V50.6885C210.703 53.8361 207.935 55.0164 204.575 55.0164C201.215 55.0164 198.513 53.8361 198.513 50.6885V47.6066C198.513 46.1639 198.052 45.5082 196.603 45.5082H189.421C187.971 45.5082 187.444 46.0984 187.444 47.6066V52.1967C187.444 58.0984 191.793 64 204.839 64C217.819 64 222.035 58.1639 222.035 52.1967V47.2787C221.97 42.1639 218.412 38.5574 213.338 36.8525Z" fill="#1577EB" />
	<path d="M254.939 46.153L260.873 61.402C261.425 62.989 262.046 63.472 263.081 63.472H271.085C272.672 63.472 273.5 62.575 273.017 61.402L266.255 44.428C270.947 42.427 273.431 38.839 273.431 34.354V28.351C273.431 21.106 267.014 16.552 255.905 16.552H241.001C239.621 16.552 239 17.173 239 18.622V61.402C239 62.851 239.621 63.472 241.001 63.472H248.453C249.833 63.472 250.385 62.851 250.385 61.402V46.153H254.939ZM255.905 25.867C259.769 25.867 262.184 27.523 262.184 30.352V32.353C262.184 35.182 259.769 36.838 255.905 36.838H250.385V25.867H255.905Z" fill="#061440" />
	<path d="M305.147 63.472C306.596 63.472 307.217 62.851 307.217 61.471V56.089C307.217 54.709 306.596 54.157 305.147 54.157H290.243V43.807H303.353C304.802 43.807 305.423 43.186 305.423 41.806V36.769C305.423 35.389 304.802 34.837 303.353 34.837H290.243V25.867H304.457C305.906 25.867 306.527 25.246 306.527 23.866V18.484C306.527 17.104 305.906 16.552 304.457 16.552H280.859C279.479 16.552 278.858 17.173 278.858 18.622V61.402C278.858 62.851 279.479 63.472 280.859 63.472H305.147Z" fill="#061440" />
	<path d="M329.288 47.533C340.397 47.533 346.814 42.979 346.814 35.734V28.351C346.814 21.106 340.397 16.552 329.288 16.552H314.384C313.004 16.552 312.383 17.173 312.383 18.622V61.402C312.383 62.851 313.004 63.472 314.384 63.472H321.836C323.216 63.472 323.768 62.851 323.768 61.402V47.533H329.288ZM329.288 25.867C333.152 25.867 335.567 27.523 335.567 30.352V33.733C335.567 36.562 333.152 38.218 329.288 38.218H323.768V25.867H329.288Z" fill="#061440" />
	<path d="M368.27 64.024C379.517 64.024 385.934 59.47 385.934 52.225V27.799C385.934 20.554 379.517 16 368.27 16C357.161 16 350.675 20.554 350.675 27.799V52.225C350.675 59.47 357.161 64.024 368.27 64.024ZM368.27 54.709C364.406 54.709 362.06 53.053 362.06 50.224V29.8C362.06 26.971 364.406 25.315 368.27 25.315C372.134 25.315 374.549 26.971 374.549 29.8V50.224C374.549 53.053 372.134 54.709 368.27 54.709Z" fill="#061440" />
	<path d="M408.105 46.153L414.04 61.402C414.592 62.989 415.212 63.472 416.247 63.472H424.252C425.839 63.472 426.667 62.575 426.184 61.402L419.422 44.428C424.114 42.427 426.598 38.839 426.598 34.354V28.351C426.598 21.106 420.18 16.552 409.072 16.552H394.168C392.788 16.552 392.167 17.173 392.167 18.622V61.402C392.167 62.851 392.788 63.472 394.168 63.472H401.62C403 63.472 403.551 62.851 403.551 61.402V46.153H408.105ZM409.072 25.867C412.936 25.867 415.351 27.523 415.351 30.352V32.353C415.351 35.182 412.936 36.838 409.072 36.838H403.551V25.867H409.072Z" fill="#061440" />
	<path d="M430.037 16.552C428.588 16.552 427.967 17.104 427.967 18.484V23.866C427.967 25.246 428.588 25.867 430.037 25.867H438.869V61.402C438.869 62.851 439.49 63.472 440.87 63.472H448.322C449.702 63.472 450.254 62.851 450.254 61.402V25.867H459.086C460.535 25.867 461.156 25.246 461.156 23.866V18.484C461.156 17.104 460.535 16.552 459.086 16.552H430.037Z" fill="#061440" />
	<path d="M485.253 30.352C485.253 31.801 485.805 32.422 487.185 32.422H494.361C495.741 32.422 496.362 31.801 496.362 30.352V27.799C496.362 20.347 490.566 16 479.871 16C469.107 16 463.38 20.14 463.38 27.799V31.801C463.38 35.665 466.209 39.598 469.797 40.978L479.733 44.704C484.632 46.567 485.667 47.671 485.667 49.327V50.707C485.667 53.536 483.459 55.054 479.526 55.054C475.662 55.054 473.454 53.536 473.454 50.707V47.602C473.454 46.153 472.902 45.532 471.522 45.532H464.346C462.966 45.532 462.345 46.153 462.345 47.602V52.225C462.345 59.608 468.555 64.024 479.595 64.024C490.635 64.024 496.845 59.608 496.845 52.225V47.326C496.845 42.565 493.74 38.77 488.22 36.907L476.628 32.974C475.317 32.491 474.42 31.387 474.42 30.007V29.317C474.42 26.488 476.283 24.97 479.871 24.97C483.459 24.97 485.253 26.488 485.253 29.317V30.352Z" fill="#061440" />
</svg>
